<svg width="183" height="166" viewBox="0 0 183 166" fill="none" xmlns="http://www.w3.org/2000/svg">
<path d="M123.525 145.25H52.8517C48.2324 145.25 45.9227 145.25 44.8532 144.421C43.9252 143.702 43.4327 142.624 43.5284 141.52C43.6388 140.248 45.272 138.767 48.5384 135.804L113.373 76.992C116.393 74.2529 117.903 72.8833 119.644 72.3702C121.175 71.9188 122.825 71.9188 124.356 72.3702C126.097 72.8833 127.607 74.2529 130.627 76.992L160.125 103.75V112.05M123.525 145.25C136.336 145.25 142.742 145.25 147.635 142.988C151.939 140.999 155.439 137.825 157.632 133.92C160.125 129.482 160.125 123.671 160.125 112.05M123.525 145.25H59.475C46.6638 145.25 40.2582 145.25 35.365 142.988C31.0608 140.999 27.5613 137.825 25.3682 133.92C22.875 129.482 22.875 123.671 22.875 112.05V53.95C22.875 42.3289 22.875 36.5184 25.3682 32.0797C27.5613 28.1753 31.0608 25.001 35.365 23.0116C40.2582 20.75 46.6638 20.75 59.475 20.75H123.525C136.336 20.75 142.742 20.75 147.635 23.0116C151.939 25.001 155.439 28.1753 157.632 32.0797C160.125 36.5184 160.125 42.3289 160.125 53.95V112.05M80.0625 58.7917C80.0625 66.4316 73.2348 72.625 64.8125 72.625C56.3902 72.625 49.5625 66.4316 49.5625 58.7917C49.5625 51.1517 56.3902 44.9583 64.8125 44.9583C73.2348 44.9583 80.0625 51.1517 80.0625 58.7917Z" stroke="black" stroke-width="2" stroke-linecap="round" stroke-linejoin="round"/>
</svg>
